<svg width="314" height="114" viewBox="0 0 314 114" fill="none" xmlns="http://www.w3.org/2000/svg">
<path fill-rule="evenodd" clip-rule="evenodd" d="M71.3173 50.4614L72.8707 51.4373C73.0136 51.5271 73.013 51.7355 72.8695 51.8244C72.767 51.888 72.7323 52.02 72.7837 52.1291C73.0347 52.6623 73.1688 53.2525 73.1645 53.8609L73.0214 74.2127C73.0055 76.472 70.7079 77.997 68.6198 77.1342C67.4282 76.6418 66.6509 75.4797 66.6509 74.1903V57.7242C66.6509 56.3735 65.9693 55.1141 64.8386 54.3754L53.0915 46.7014C51.7623 45.8331 50.0454 45.8331 48.7162 46.7014L36.9691 54.3754C35.8384 55.1141 35.1568 56.3735 35.1568 57.7242V74.2015C35.1568 75.4841 34.3836 76.6401 33.1982 77.1299C31.1122 77.9919 28.8195 76.4585 28.8195 74.2015V53.7569C28.8195 53.123 28.9696 52.5096 29.2454 51.9609C29.2915 51.8691 29.2631 51.756 29.176 51.7015C29.0556 51.626 29.0556 51.4506 29.176 51.3751L30.1431 50.769C30.1825 50.7444 30.2197 50.7166 30.2554 50.6868C30.3955 50.5698 30.5446 50.4616 30.7019 50.3634L48.8751 39.0231C48.9306 38.9884 48.9868 38.9553 49.0435 38.9236L51 37.6974L34.7198 26.4234C31.932 24.4928 28.2299 24.5296 25.4809 26.5152L13.3157 35.3025C11.2334 36.8065 10 39.2189 10 41.7876V61.8459C10 64.469 11.2859 66.9254 13.4414 68.4201L28.3403 78.7511C28.3406 78.7513 28.3406 78.7518 28.3403 78.752C28.3399 78.7522 28.3399 78.7526 28.3402 78.7528L46.434 91.2979C49.1794 93.2013 52.8186 93.1984 55.5609 91.2906L73.1803 79.0329L88.5687 68.3274C90.7184 66.8319 92 64.379 92 61.7603V41.8104C92 39.229 90.7544 36.8062 88.655 35.3042L76.341 26.4938C73.5836 24.5209 69.8821 24.5005 67.103 26.4428L51 37.6974L53.0957 39.014C53.104 39.0191 53.1123 39.0243 53.1206 39.0295L71.2925 50.4457C71.3008 50.4509 71.3091 50.4561 71.3173 50.4614Z" fill="url(#paint0_linear_1_511)"/>
<path d="M111.156 74C110.388 74 109.956 73.568 109.956 72.8V41.456C109.956 40.688 110.388 40.256 111.156 40.256H117.972C118.74 40.256 119.172 40.688 119.172 41.456V72.8C119.172 73.568 118.74 74 117.972 74H111.156ZM138.475 51.488C144.427 51.488 148.651 55.616 148.651 61.808V72.8C148.651 73.568 148.219 74 147.451 74H141.211C140.443 74 140.011 73.568 140.011 72.8V63.584C140.011 61.232 138.667 59.696 136.699 59.696C134.779 59.696 133.291 60.992 133.291 63.728V72.8C133.291 73.568 132.859 74 132.091 74H125.851C125.083 74 124.651 73.568 124.651 72.8V53.12C124.651 52.352 125.083 51.92 125.851 51.92H129.883C130.603 51.92 131.083 52.352 131.131 53.072L131.275 54.704C132.523 52.832 135.067 51.488 138.475 51.488ZM154.636 65.6C153.868 65.6 153.436 65.168 153.436 64.4V60.224C153.436 59.456 153.868 59.024 154.636 59.024H166.3C167.068 59.024 167.5 59.456 167.5 60.224V64.4C167.5 65.168 167.068 65.6 166.3 65.6H154.636ZM204.477 40.256C205.245 40.256 205.677 40.688 205.677 41.456V72.8C205.677 73.568 205.245 74 204.477 74H197.709C196.941 74 196.509 73.568 196.509 72.8V61.328H182.781V72.8C182.781 73.568 182.349 74 181.581 74H174.813C174.045 74 173.613 73.568 173.613 72.8V41.456C173.613 40.688 174.045 40.256 174.813 40.256H181.581C182.349 40.256 182.781 40.688 182.781 41.456V53.216H196.509V41.456C196.509 40.688 196.941 40.256 197.709 40.256H204.477ZM233.459 51.92C234.227 51.92 234.659 52.352 234.659 53.12V72.8C234.659 73.568 234.227 74 233.459 74H228.131C227.411 74 226.979 73.664 226.883 72.896L226.691 71.696C225.203 73.28 223.187 74.432 220.595 74.432C214.403 74.432 210.035 69.488 210.035 62.96C210.035 56.432 214.739 51.488 220.883 51.488C223.139 51.488 224.867 52.208 226.259 53.36L226.355 52.976C226.499 52.304 226.931 51.92 227.651 51.92H233.459ZM222.515 66.848C224.963 66.848 226.451 65.024 226.451 62.96C226.451 60.8 224.963 59.072 222.515 59.072C220.163 59.072 218.627 60.848 218.627 62.96C218.627 65.024 220.163 66.848 222.515 66.848ZM261.718 51.92C262.486 51.92 262.918 52.352 262.918 53.12V72.8C262.918 73.568 262.486 74 261.718 74H257.59C256.87 74 256.39 73.568 256.342 72.848L256.246 71.36C254.998 73.184 252.646 74.432 249.478 74.432C243.382 74.432 239.254 70.832 239.254 64.64V53.12C239.254 52.352 239.686 51.92 240.454 51.92H246.694C247.462 51.92 247.894 52.352 247.894 53.12V63.2C247.894 65.552 249.286 66.656 251.062 66.656C253.078 66.656 254.326 65.36 254.326 62.624V53.12C254.326 52.352 254.758 51.92 255.526 51.92H261.718ZM276.879 74.432C273.375 74.432 270.207 73.616 267.519 72.08C266.847 71.696 266.703 71.12 267.087 70.448L269.151 66.8C269.535 66.128 270.111 65.984 270.783 66.368C272.607 67.472 274.959 68.288 277.311 68.288C278.319 68.288 278.703 68 278.703 67.424C278.703 66.896 278.271 66.608 275.727 65.984C271.887 65.072 267.567 63.728 267.567 59.072C267.567 54.56 271.167 51.488 277.455 51.488C280.815 51.488 284.079 52.352 286.335 53.552C287.007 53.936 287.103 54.512 286.767 55.184L284.799 58.88C284.415 59.552 283.887 59.744 283.167 59.36C281.295 58.4 279.231 57.776 277.359 57.776C276.351 57.776 275.871 58.064 275.871 58.688C275.871 59.216 276.495 59.36 279.519 59.984C281.967 60.512 287.007 61.712 287.007 66.896C287.007 71.216 283.743 74.432 276.879 74.432Z" fill="url(#paint1_linear_1_511)"/>
<defs>
<linearGradient id="paint0_linear_1_511" x1="50.952" y1="46.0636" x2="50.952" y2="65.0831" gradientUnits="userSpaceOnUse">
<stop stop-color="#7364C2"/>
<stop offset="1" stop-color="#4A57D2"/>
</linearGradient>
<linearGradient id="paint1_linear_1_511" x1="106.5" y1="57" x2="312.5" y2="57" gradientUnits="userSpaceOnUse">
<stop stop-color="#7566CA"/>
<stop offset="1" stop-color="#476BFB"/>
</linearGradient>
</defs>
</svg>
