<svg width="24" height="24" viewBox="0 0 24 24" fill="none" xmlns="http://www.w3.org/2000/svg">
<path fill-rule="evenodd" clip-rule="evenodd" d="M2 10C2 5.58172 5.58172 2 10 2H14C18.4183 2 22 5.58172 22 10V14C22 18.4183 18.4183 22 14 22H10C5.58172 22 2 18.4183 2 14V10ZM12 7C12.5523 7 13 7.44772 13 8V11H16C16.5523 11 17 11.4477 17 12C17 12.5523 16.5523 13 16 13H13V16C13 16.5523 12.5523 17 12 17C11.4477 17 11 16.5523 11 16V13H8C7.44771 13 7 12.5523 7 12C7 11.4477 7.44771 11 8 11H11V8C11 7.44772 11.4477 7 12 7Z" fill="#333232"/>
</svg>
