<svg width="20" height="20" viewBox="0 0 20 20" fill="none" xmlns="http://www.w3.org/2000/svg">
<path fill-rule="evenodd" clip-rule="evenodd" d="M10 20C15.5228 20 20 15.5229 20 10C20 4.47714 15.5228 0 10 0C4.47717 0 0 4.47714 0 10C0 15.5229 4.47717 20 10 20ZM14 10C15.1046 10 16 9.10458 16 8C16 6.89542 15.1046 6 14 6C12.8954 6 12 6.89542 12 8C12 9.10458 12.8954 10 14 10ZM8 8C8 9.10458 7.10455 10 6 10C4.89545 10 4 9.10458 4 8C4 6.89542 4.89545 6 6 6C7.10455 6 8 6.89542 8 8ZM13.2191 15.5472C13.5641 15.9784 14.1934 16.0484 14.6246 15.7033C15.0559 15.3583 15.1259 14.729 14.7808 14.2978C12.3298 11.234 7.6701 11.234 5.21912 14.2978C4.87408 14.729 4.94403 15.3583 5.37524 15.7033C5.80652 16.0484 6.43585 15.9784 6.78082 15.5472C8.43115 13.4843 11.5687 13.4843 13.2191 15.5472Z" fill="#333232"/>
</svg>
